<?xml version="1.0" encoding="UTF-8"?>
<!DOCTYPE svg PUBLIC "-//W3C//DTD SVG 1.1//EN" "http://www.w3.org/Graphics/SVG/1.1/DTD/svg11.dtd">
<svg xmlns="http://www.w3.org/2000/svg" version="1.1" width="40px" height="40px" style="shape-rendering:geometricPrecision; text-rendering:geometricPrecision; image-rendering:optimizeQuality; fill-rule:evenodd; clip-rule:evenodd" xmlns:xlink="http://www.w3.org/1999/xlink">
<g><path style="opacity:1" fill="#f9faf6" d="M -0.5,-0.5 C 12.8333,-0.5 26.1667,-0.5 39.5,-0.5C 39.5,12.8333 39.5,26.1667 39.5,39.5C 36.5,39.5 33.5,39.5 30.5,39.5C 31.0783,37.5565 32.0783,37.2232 33.5,38.5C 35.7113,37.8072 36.0446,36.6406 34.5,35C 34.6301,33.9412 35.1301,33.1079 36,32.5C 36.3333,34.5 36.6667,36.5 37,38.5C 37.6377,37.3914 38.1377,36.2247 38.5,35C 38.0843,25.9261 37.5843,16.7594 37,7.5C 35.5125,5.16954 33.6791,4.83621 31.5,6.5C 30.8333,5.16667 29.8333,4.16667 28.5,3.5C 21.3451,2.34485 14.0118,2.17818 6.5,3C 6,3.5 5.5,4 5,4.5C 5.70568,8.01462 5.53901,11.5146 4.5,15C 5.01055,19.6291 6.01055,24.1291 7.5,28.5C 5.95186,28.8212 5.28519,29.8212 5.5,31.5C 6.67739,33.0315 8.01072,34.5315 9.5,36C 7.96515,35.3391 6.29848,35.0058 4.5,35C 6.89118,36.3086 6.89118,37.3086 4.5,38C 5.89888,38.5946 7.23221,38.4279 8.5,37.5C 9.5223,37.8555 10.189,38.5222 10.5,39.5C 6.83333,39.5 3.16667,39.5 -0.5,39.5C -0.5,26.1667 -0.5,12.8333 -0.5,-0.5 Z"/></g>
<g><path style="opacity:1" fill="#f3f4f2" d="M 30.5,39.5 C 23.8333,39.5 17.1667,39.5 10.5,39.5C 10.189,38.5222 9.5223,37.8555 8.5,37.5C 7.23221,38.4279 5.89888,38.5946 4.5,38C 6.89118,37.3086 6.89118,36.3086 4.5,35C 6.29848,35.0058 7.96515,35.3391 9.5,36C 8.01072,34.5315 6.67739,33.0315 5.5,31.5C 9.94471,32.1034 14.4447,31.7701 19,30.5C 20.3928,33.1251 21.5595,33.1251 22.5,30.5C 22.8333,30.5 23.1667,30.5 23.5,30.5C 25.3234,31.2273 27.1568,31.5606 29,31.5C 29.7401,30.2506 29.5735,29.2506 28.5,28.5C 29.0076,26.7673 29.841,26.434 31,27.5C 31.4955,25.5273 31.6621,23.5273 31.5,21.5C 30.6475,16.5385 30.6475,11.5385 31.5,6.5C 33.6791,4.83621 35.5125,5.16954 37,7.5C 37.5843,16.7594 38.0843,25.9261 38.5,35C 38.1377,36.2247 37.6377,37.3914 37,38.5C 36.6667,36.5 36.3333,34.5 36,32.5C 35.1301,33.1079 34.6301,33.9412 34.5,35C 36.0446,36.6406 35.7113,37.8072 33.5,38.5C 32.0783,37.2232 31.0783,37.5565 30.5,39.5 Z"/></g>
<g><path style="opacity:1" fill="#3e205f" d="M 28.5,3.5 C 29.8333,4.16667 30.8333,5.16667 31.5,6.5C 30.6475,11.5385 30.6475,16.5385 31.5,21.5C 30.7811,23.0913 29.7811,24.5913 28.5,26C 22.3188,26.8192 16.3188,26.6525 10.5,25.5C 12.8333,25.5 15.1667,25.5 17.5,25.5C 19.604,25.7989 21.604,25.4656 23.5,24.5C 22.6798,22.8888 21.3464,22.2222 19.5,22.5C 19.5,21.5 19.5,20.5 19.5,19.5C 19.8333,19.5 20.1667,19.5 20.5,19.5C 20.5173,21.0281 21.184,21.5281 22.5,21C 23.7911,19.7083 23.7911,18.5417 22.5,17.5C 23.8637,15.8089 25.197,14.1423 26.5,12.5C 28.2798,11.0101 28.9465,9.01011 28.5,6.5C 26.4727,6.33788 24.4727,6.50454 22.5,7C 21.944,7.38258 21.6107,7.88258 21.5,8.5C 19.8333,9.5 18.5,10.8333 17.5,12.5C 15.0672,12.2729 13.4006,13.2729 12.5,15.5C 11.1667,15.5 9.83333,15.5 8.5,15.5C 8.5,18.1667 8.5,20.8333 8.5,23.5C 7.34745,17.6812 7.18079,11.6812 8,5.5C 8.5,5 9,4.5 9.5,4C 15.8246,3.50046 22.1579,3.33379 28.5,3.5 Z"/></g>
<g><path style="opacity:1" fill="#ce7838" d="M 26.5,10.5 C 24.9731,10.573 23.9731,9.90632 23.5,8.5C 24.209,7.59603 25.209,7.26269 26.5,7.5C 26.5,8.5 26.5,9.5 26.5,10.5 Z"/></g>
<g><path style="opacity:1" fill="#4d1d27" d="M 26.5,12.5 C 26.5,11.8333 26.5,11.1667 26.5,10.5C 26.5,9.5 26.5,8.5 26.5,7.5C 25.209,7.26269 24.209,7.59603 23.5,8.5C 22.8333,8.5 22.1667,8.5 21.5,8.5C 21.6107,7.88258 21.944,7.38258 22.5,7C 24.4727,6.50454 26.4727,6.33788 28.5,6.5C 28.9465,9.01011 28.2798,11.0101 26.5,12.5 Z"/></g>
<g><path style="opacity:1" fill="#584d80" d="M 14.5,6.5 C 16.1958,6.68535 17.5291,7.51869 18.5,9C 16.1667,11 13.8333,11 11.5,9C 12.7155,6.90449 13.5488,7.07116 14,9.5C 14.4828,8.55198 14.6495,7.55198 14.5,6.5 Z"/></g>
<g><path style="opacity:1" fill="#c15c9a" d="M 17.5,12.5 C 17.0679,13.7095 16.4013,14.7095 15.5,15.5C 14.5,15.5 13.5,15.5 12.5,15.5C 13.4006,13.2729 15.0672,12.2729 17.5,12.5 Z"/></g>
<g><path style="opacity:1" fill="#f2e1e5" d="M 21.5,8.5 C 22.1667,8.5 22.8333,8.5 23.5,8.5C 23.9731,9.90632 24.9731,10.573 26.5,10.5C 26.5,11.1667 26.5,11.8333 26.5,12.5C 25.197,14.1423 23.8637,15.8089 22.5,17.5C 21.5,17.8333 20.8333,18.5 20.5,19.5C 20.1667,19.5 19.8333,19.5 19.5,19.5C 19.0269,18.0937 18.0269,17.427 16.5,17.5C 16.1667,16.8333 15.8333,16.1667 15.5,15.5C 16.4013,14.7095 17.0679,13.7095 17.5,12.5C 18.5,10.8333 19.8333,9.5 21.5,8.5 Z"/></g>
<g><path style="opacity:1" fill="#4a5587" d="M 21.5,10.5 C 23.0481,10.8212 23.7148,11.8212 23.5,13.5C 20.7524,13.5983 20.0857,12.5983 21.5,10.5 Z"/></g>
<g><path style="opacity:1" fill="#5b148a" d="M 12.5,15.5 C 13.5,15.5 14.5,15.5 15.5,15.5C 15.8333,16.1667 16.1667,16.8333 16.5,17.5C 15.8333,17.5 15.5,17.8333 15.5,18.5C 15.5,19.1667 15.5,19.8333 15.5,20.5C 13.5,20.5 11.5,20.5 9.5,20.5C 9.5,21.8333 9.5,23.1667 9.5,24.5C 8.83333,24.5 8.5,24.1667 8.5,23.5C 8.5,20.8333 8.5,18.1667 8.5,15.5C 9.83333,15.5 11.1667,15.5 12.5,15.5 Z"/></g>
<g><path style="opacity:1" fill="#7f344c" d="M 15.5,18.5 C 15.5,17.8333 15.8333,17.5 16.5,17.5C 18.0269,17.427 19.0269,18.0937 19.5,19.5C 18.8333,19.5 18.1667,19.5 17.5,19.5C 17.1583,18.6618 16.4916,18.3284 15.5,18.5 Z"/></g>
<g><path style="opacity:1" fill="#ef4b8b" d="M 15.5,18.5 C 16.4916,18.3284 17.1583,18.6618 17.5,19.5C 17.1583,20.3382 16.4916,20.6716 15.5,20.5C 15.5,19.8333 15.5,19.1667 15.5,18.5 Z"/></g>
<g><path style="opacity:1" fill="#c0535d" d="M 22.5,17.5 C 23.7911,18.5417 23.7911,19.7083 22.5,21C 21.184,21.5281 20.5173,21.0281 20.5,19.5C 20.8333,18.5 21.5,17.8333 22.5,17.5 Z"/></g>
<g><path style="opacity:1" fill="#47127b" d="M 17.5,19.5 C 18.1667,19.5 18.8333,19.5 19.5,19.5C 19.5,20.5 19.5,21.5 19.5,22.5C 21.3464,22.2222 22.6798,22.8888 23.5,24.5C 21.604,25.4656 19.604,25.7989 17.5,25.5C 18.2341,24.2921 18.5674,22.9587 18.5,21.5C 17.5,21.5 16.5,21.5 15.5,21.5C 15.5,21.1667 15.5,20.8333 15.5,20.5C 16.4916,20.6716 17.1583,20.3382 17.5,19.5 Z"/></g>
<g><path style="opacity:1" fill="#641bb7" d="M 15.5,20.5 C 15.5,20.8333 15.5,21.1667 15.5,21.5C 16.5,21.5 17.5,21.5 18.5,21.5C 18.5674,22.9587 18.2341,24.2921 17.5,25.5C 15.1667,25.5 12.8333,25.5 10.5,25.5C 9.83333,25.5 9.5,25.1667 9.5,24.5C 9.5,23.1667 9.5,21.8333 9.5,20.5C 11.5,20.5 13.5,20.5 15.5,20.5 Z"/></g>
<g><path style="opacity:1" fill="#ece4ef" d="M 28.5,3.5 C 22.1579,3.33379 15.8246,3.50046 9.5,4C 9,4.5 8.5,5 8,5.5C 7.18079,11.6812 7.34745,17.6812 8.5,23.5C 8.5,24.1667 8.83333,24.5 9.5,24.5C 9.5,25.1667 9.83333,25.5 10.5,25.5C 16.3188,26.6525 22.3188,26.8192 28.5,26C 29.7811,24.5913 30.7811,23.0913 31.5,21.5C 31.6621,23.5273 31.4955,25.5273 31,27.5C 29.841,26.434 29.0076,26.7673 28.5,28.5C 27.2502,28.5774 26.4169,29.244 26,30.5C 25.2949,28.0144 24.4616,28.0144 23.5,30.5C 23.1667,30.5 22.8333,30.5 22.5,30.5C 17.5859,28.5114 12.5859,27.8447 7.5,28.5C 6.01055,24.1291 5.01055,19.6291 4.5,15C 5.53901,11.5146 5.70568,8.01462 5,4.5C 5.5,4 6,3.5 6.5,3C 14.0118,2.17818 21.3451,2.34485 28.5,3.5 Z"/></g>
<g><path style="opacity:1" fill="#6712dd" d="M 15.5,21.5 C 15.8039,22.1499 16.1373,22.8165 16.5,23.5C 14.604,24.4656 12.604,24.7989 10.5,24.5C 10.5,23.5 10.5,22.5 10.5,21.5C 12.1667,21.5 13.8333,21.5 15.5,21.5 Z"/></g>
<g><path style="opacity:1" fill="#656563" d="M 31.5,29.5 C 33.337,29.6395 33.6704,30.3061 32.5,31.5C 31.7025,31.0431 31.3691,30.3764 31.5,29.5 Z"/></g>
<g><path style="opacity:1" fill="#727072" d="M 7.5,28.5 C 12.5859,27.8447 17.5859,28.5114 22.5,30.5C 21.5595,33.1251 20.3928,33.1251 19,30.5C 14.4447,31.7701 9.94471,32.1034 5.5,31.5C 5.28519,29.8212 5.95186,28.8212 7.5,28.5 Z"/></g>
<g><path style="opacity:1" fill="#60655a" d="M 28.5,28.5 C 29.5735,29.2506 29.7401,30.2506 29,31.5C 27.1568,31.5606 25.3234,31.2273 23.5,30.5C 24.4616,28.0144 25.2949,28.0144 26,30.5C 26.4169,29.244 27.2502,28.5774 28.5,28.5 Z"/></g>
<g><path style="opacity:1" fill="#80807e" d="M 11.5,32.5 C 13.0295,33.0668 14.5295,33.7334 16,34.5C 19.7436,33.374 23.577,33.2073 27.5,34C 27.9574,34.414 28.2907,34.914 28.5,35.5C 23.572,35.2926 18.9053,35.626 14.5,36.5C 12.4501,35.9234 11.4501,34.5901 11.5,32.5 Z"/></g>
</svg>
